<?xml version="1.0" encoding="utf-8"?>
<!-- Generator: Adobe Illustrator 24.1.3, SVG Export Plug-In . SVG Version: 6.00 Build 0)  -->
<svg version="1.1" id="Layer_1" xmlns="http://www.w3.org/2000/svg" xmlns:xlink="http://www.w3.org/1999/xlink" x="0px" y="0px"
	 viewBox="0 0 800 800" style="enable-background:new 0 0 800 800;" xml:space="preserve">
<style type="text/css">
	.st0{fill:#D32C2E;}
</style>
<g>
	<g>
		<g>
			<line class="st0" x1="401.5" y1="433.1" x2="400.7" y2="430.3"/>
		</g>
	</g>
	<g>
		<g>
			<path class="st0" d="M456.8,434.1c1.9,13.8-7.7,26.5-21.5,28.5c-13.8,1.9-26.5-7.7-28.5-21.5c-1.9-13.8,7.7-26.5,21.5-28.5
				C442.1,410.7,454.8,420.3,456.8,434.1"/>
		</g>
	</g>
	<g>
		<g>
			<path class="st0" d="M504.1,624.5l-6.7-26.1l13-3.3c0.7-0.2,44.3-11.9,54.3-41.2c5.8-17.1-0.9-38.3-20-63l-14.2-18.4l70.4-9.9
				l-87.2-44.9l73.3-47.7l-78.1-3.8l1.3-26.9l161.4,7.9L567.3,415l121.4,62.5l-110,15.4c14.9,25.2,18.7,48.6,11.5,69.8
				c-14.8,43.2-70.7,57.9-73,58.5L504.1,624.5z"/>
		</g>
	</g>
	<g>
		<g>
			<path class="st0" d="M223.5,546.1c-7.9-18-25-37.6-39.5-53.1c-26.1-28-55.6-59.6-55.4-117.2l0.1-21.8l19.4,9.8
				c9.3,4.7,26.5,3.1,40.3,0.3c-16.9-35.1-49.1-120.2,8.5-167.3l9.2-7.5l8.6,8.1c26.7,25.2,35.7,31.6,45.9,36.8
				c-9.7-33.8-11.9-67.6-5.8-94.9l4.6-20.4l16.7,12.6c5,3.8,9.7,7.6,14.3,11.5c14.8,12.3,27.6,22.9,49,27.6
				c28.9,6.5,67.8,1.1,68.2,1.1l1.4-0.1c2.2-0.1,55-1.4,93.6,41.3c38.1,42.2,35.2,103.5,35.1,106.3l-26.9-1.4
				c0-0.6,2.3-53-28.2-86.9c-28.1-31.1-67.1-32.4-72.2-32.5c-6.6,0.9-45.5,5.4-76.9-1.6c-24.7-5.5-40.6-17-55.1-28.9
				c-0.8,26.9,5.7,58.2,18.6,87.9l15.9,36.6L278,273.1c-9.6-5.4-16.1-8.4-21.9-11.1c-15.2-7.1-23.9-11.7-50.4-36.1
				c-39.6,47.8,13.6,139.2,14.1,140.2l8.5,14.4l-15.9,5.3c-3.8,1.3-31.1,9.9-55.8,7.6c4.9,36.1,25.5,58.1,47,81.2
				c15.4,16.4,21.7,14.8,31.4,36.9L223.5,546.1z"/>
		</g>
	</g>
	<g>
		<g>
			<path class="st0" d="M571.1,717.7c108.7-63.5,178.3-185,168.6-317.2c-4.1-56.7-21.3-111.4-50.5-159.2l0.5-0.3l-7.6-11.1
				c-0.4-0.6-0.9-1.2-1.4-1.9c-46.3-68.4-118.5-120.5-213.7-139.8l0.3,0.5c-36.5-7.1-74.5-8.4-112.9-3c-26,3.6-54.3,11.3-78.6,20.7
				l8.6,7c3.2,2.6,6.2,5.4,9.1,8.4l4.8,5c19.3-6.7,39.4-11.6,59.8-14.4c103.3-14.5,204.6,22.5,273.7,97.7c0.3,0.3,0.6,0.7,0.9,1
				c2.3,2.5,4.4,5.1,6.6,7.7c37.1,45,61.9,100.8,70.5,161.4c16.1,114.9-32.7,224.3-118.4,290.8c-2.9-20.7-5.6-43.3-16.9-58.2
				l-23.9,14c8.7,11.6,12.2,39,15.1,62.2"/>
		</g>
	</g>
	<g>
		<g>
			<path class="st0" d="M232.8,687.7L310,441l0.1-1.2c0.1-0.6,7.7-57.4,54.1-65.5l-4.7-27.2c-27.8,4.8-49.9,22.1-64,49.8
				c-8.8,17.2-11.8,33.4-12.5,38.2l-73.8,236.1C146.5,622.9,102,551.2,90.2,467C75.3,360.5,114,256.4,192.6,188.5
				c12.5-10.8,26-20.6,40.4-29.5l0.4-6.9c0.3-6.7,1.3-13.3,2.8-19.9l2.1-9.2C105.8,192.4,43.7,334.5,62.9,470.8
				c14.8,105.4,76.6,192.8,161.2,244"/>
		</g>
	</g>
</g>
</svg>
